<svg width="24" height="24" viewBox="0 0 24 24" fill="none" xmlns="http://www.w3.org/2000/svg">
<rect width="24" height="24" rx="12" fill="#302F31" fill-opacity="0.7"/>
<path d="M16.3157 8.32007C16.3157 8.18233 16.2694 8.03829 16.1644 7.93316C15.954 7.72296 15.6009 7.72296 15.3904 7.93316L12.0095 11.3142L8.62855 7.93316C8.41809 7.72296 8.06498 7.72296 7.85452 7.93316C7.64459 8.14341 7.64459 8.49674 7.85452 8.70699L11.2354 12.088L7.85452 15.4691C7.64459 15.6793 7.64459 16.0326 7.85452 16.2429C8.06498 16.4531 8.41809 16.4531 8.62855 16.2429L12.0095 12.8618L15.3904 16.2429C15.6009 16.4531 15.954 16.4531 16.1644 16.2429C16.2694 16.1378 16.3157 15.9937 16.3157 15.856C16.3157 15.7182 16.2694 15.5742 16.1644 15.4691L12.7835 12.088L16.1644 8.70699C16.2694 8.60186 16.3157 8.45782 16.3157 8.32007Z" fill="#FDFDFF"/>
</svg>
