<svg preserveAspectRatio="none" overflow="visible" style="display: block;" width="54.4526" height="57.1133" viewBox="0 0 54.4526 57.1133" fill="none" xmlns="http://www.w3.org/2000/svg">
<g id="elements">
<path id="Vector" d="M13.1915 37.4332L13.4988 36.0716L13.4988 36.0716L13.1915 37.4332ZM7.03025 26.1998L5.64227 26.3477L5.64228 26.3477L7.03025 26.1998ZM31.2817 21.8788L31.504 20.5008C30.9633 20.4136 30.4216 20.6506 30.1187 21.1069C29.8158 21.5632 29.8078 22.1545 30.0982 22.6189L31.2817 21.8788ZM37.6479 22.9059L37.4255 24.2839L37.4289 24.2845L37.6479 22.9059ZM39.4126 15.4351L38.9253 16.7431C38.9337 16.7462 38.9422 16.7493 38.9507 16.7523L39.4126 15.4351ZM27.9694 11.1721L27.4821 12.4801L27.4821 12.4801L27.9694 11.1721ZM42.0132 19.5598L43.4009 19.7107L43.4009 19.7107L42.0132 19.5598ZM5.23764 15.966C4.82893 15.3124 3.96772 15.1138 3.31409 15.5225C2.66046 15.9313 2.46191 16.7925 2.87063 17.4461L4.05413 16.7061L5.23764 15.966ZM22.6235 5.09467C22.2148 4.44103 21.3536 4.24249 20.6999 4.65121C20.0463 5.05992 19.8477 5.92112 20.2565 6.57476L21.44 5.83471L22.6235 5.09467ZM23.939 9.2358L23.0335 10.2981L23.0335 10.2981L23.939 9.2358ZM24.1548 9.41222L23.2938 10.5109L23.2938 10.5109L24.1548 9.41222ZM29.0329 34.079L30.2164 33.3389C30.0145 33.0161 29.6895 32.7897 29.3166 32.7123C28.9438 32.6349 28.5555 32.7132 28.2418 32.929L29.0329 34.079ZM13.1915 37.4332L13.4988 36.0716C12.0681 35.7486 10.8748 34.3942 9.95845 32.2737C9.0686 30.2145 8.60393 27.7948 8.41823 26.0519L7.03025 26.1998L5.64228 26.3477C5.8451 28.2513 6.35515 30.973 7.39583 33.3811C8.41001 35.728 10.103 38.167 12.8841 38.7947L13.1915 37.4332ZM7.03025 26.1998L8.41823 26.0519C8.37119 25.6104 8.34857 25.116 8.32463 24.5504C8.30136 24.0004 8.27697 23.3881 8.22262 22.7784C8.11627 21.5855 7.88272 20.1961 7.1535 19.0299L5.96999 19.77L4.78648 20.51C5.15325 21.0965 5.34475 21.9357 5.44198 23.0263C5.48943 23.5585 5.51148 24.1016 5.53546 24.6684C5.55877 25.2194 5.58422 25.8028 5.64227 26.3477L7.03025 26.1998ZM31.2817 21.8788L31.0593 23.2568L37.4255 24.2839L37.6479 22.9059L37.8702 21.5279L31.504 20.5008L31.2817 21.8788ZM39.4126 15.4351L39.8999 14.1271L28.4566 9.86409L27.9694 11.1721L27.4821 12.4801L38.9253 16.7431L39.4126 15.4351ZM42.0132 19.5598L43.4009 19.7107C43.6675 17.2596 42.2012 14.9338 39.8745 14.1179L39.4126 15.4351L38.9507 16.7523C40.0526 17.1387 40.7519 18.2476 40.6256 19.4089L42.0132 19.5598ZM37.6479 22.9059L37.4289 24.2845C40.3714 24.7518 43.0789 22.6707 43.4009 19.7107L42.0132 19.5598L40.6256 19.4088C40.4752 20.7907 39.2253 21.7431 37.8668 21.5274L37.6479 22.9059ZM5.96999 19.77L7.1535 19.0299L5.23764 15.966L4.05413 16.7061L2.87063 17.4461L4.78648 20.51L5.96999 19.77ZM21.44 5.83471L20.2565 6.57476C21.3455 8.31631 22.0346 9.44664 23.0335 10.2981L23.939 9.2358L24.8444 8.1735C24.249 7.66594 23.8036 6.98189 22.6235 5.09467L21.44 5.83471ZM27.9694 11.1721L28.4566 9.86409C26.3828 9.09151 25.6301 8.79495 25.0158 8.31355L24.1548 9.41222L23.2938 10.5109C24.3278 11.3212 25.5688 11.7674 27.4821 12.4801L27.9694 11.1721ZM23.939 9.2358L23.0335 10.2981C23.1188 10.3708 23.2056 10.4417 23.2938 10.5109L24.1548 9.41222L25.0158 8.31356C24.9577 8.26807 24.9006 8.22137 24.8444 8.17349L23.939 9.2358ZM42.7642 40.2421L43.9477 39.502L32.4652 21.1388L31.2817 21.8788L30.0982 22.6189L41.5807 40.9821L42.7642 40.2421ZM35.6632 44.6823L36.8467 43.9423L30.2164 33.3389L29.0329 34.079L27.8494 34.819L34.4797 45.4224L35.6632 44.6823ZM29.0329 34.079L28.2418 32.929C25.2248 35.0044 19.6178 37.4528 13.4988 36.0716L13.1915 37.4332L12.8841 38.7947C20.044 40.4109 26.4503 37.5498 29.824 35.229L29.0329 34.079ZM42.7642 40.2421L41.5807 40.9821C42.3981 42.2894 42.001 44.0118 40.6938 44.8292L41.4338 46.0127L42.1739 47.1962C44.7884 45.5614 45.5826 42.1166 43.9477 39.502L42.7642 40.2421ZM41.4338 46.0127L40.6938 44.8292C39.3865 45.6467 37.6641 45.2496 36.8467 43.9423L35.6632 44.6823L34.4797 45.4224C36.1145 48.0369 39.5593 48.8311 42.1739 47.1962L41.4338 46.0127Z" fill="#EDECF2"/>
</g>
</svg>
